<svg id="Capa_1" data-name="Capa 1" xmlns="http://www.w3.org/2000/svg" xmlns:xlink="http://www.w3.org/1999/xlink" viewBox="0 0 17.86 17.86"><defs><style>.cls-1{fill:none;}.cls-2{clip-path:url(#clip-path);}.cls-3{clip-path:url(#clip-path-2);}.cls-4{fill:#fff;}</style><clipPath id="clip-path"><rect id="_Rectángulo_" data-name="&lt;Rectángulo&gt;" class="cls-1" x="1.43" y="237.36" width="1120.92" height="269"/></clipPath><clipPath id="clip-path-2"><rect id="_Trazado_de_recorte_" data-name="&lt;Trazado de recorte&gt;" class="cls-1" width="17.86" height="17.86"/></clipPath></defs><title>Mesa de trabajo 12</title><g id="_Recortar_grupo_" data-name="&lt;Recortar grupo&gt;"><g class="cls-2"><image id="_Imagen_" data-name="&lt;Imagen&gt;" width="1920" height="1200" transform="translate(1.63 -24.81) scale(0.58 0.57)" xlink:href="../visualesmeraki/bambu-background.jpg"/></g></g><g id="_Grupo_" data-name="&lt;Grupo&gt;"><g id="_Recortar_grupo_2" data-name="&lt;Recortar grupo&gt;"><g class="cls-3"><path id="_Trazado_compuesto_" data-name="&lt;Trazado compuesto&gt;" class="cls-4" d="M17.83,14.07a.86.86,0,0,1-.26.76l-2.51,2.49a1.42,1.42,0,0,1-.44.32,1.84,1.84,0,0,1-.54.17h-.36a8.72,8.72,0,0,1-1.16-.12,8.81,8.81,0,0,1-2-.6A16.5,16.5,0,0,1,8,15.66,19.65,19.65,0,0,1,4.82,13a20.7,20.7,0,0,1-2.19-2.49,17.76,17.76,0,0,1-1.4-2.2A11.83,11.83,0,0,1,.44,6.49,9.71,9.71,0,0,1,.08,5.07,4.67,4.67,0,0,1,0,4.14q0-.34,0-.38a1.84,1.84,0,0,1,.17-.54,1.41,1.41,0,0,1,.32-.44L3,.26A.83.83,0,0,1,3.63,0a.7.7,0,0,1,.43.14,1.31,1.31,0,0,1,.32.35l2,3.83A.92.92,0,0,1,6.5,5a1.18,1.18,0,0,1-.32.6l-.93.93a.32.32,0,0,0-.07.12.47.47,0,0,0,0,.14,3.41,3.41,0,0,0,.34.91,8.32,8.32,0,0,0,.7,1.1,12.27,12.27,0,0,0,1.34,1.5A12.5,12.5,0,0,0,9,11.64a8.72,8.72,0,0,0,1.1.71,3,3,0,0,0,.68.27l.24,0,.12,0a.31.31,0,0,0,.12-.07l1.08-1.1a1.16,1.16,0,0,1,.79-.3,1,1,0,0,1,.51.11h0l3.64,2.15a1,1,0,0,1,.47.62Zm0,0"/></g></g></g></svg>