<svg id="Capa_1" data-name="Capa 1" xmlns="http://www.w3.org/2000/svg" viewBox="0 0 453.02 125.48"><defs><style>.cls-1{fill:#fff;}.cls-2{fill:#b88e6d;}.cls-3{font-size:22.26px;font-family:TeXGyreAdventor-Italic, TeX Gyre Adventor;font-style:italic;}.cls-4{letter-spacing:-0.06em;}.cls-5{letter-spacing:0em;}.cls-6{letter-spacing:-0.03em;}.cls-7{letter-spacing:0em;}.cls-8{letter-spacing:-0.03em;}.cls-9{letter-spacing:-0.02em;}.cls-10{letter-spacing:-0.03em;}.cls-11{letter-spacing:0em;}.cls-12,.cls-13{stroke:#b88e6d;stroke-miterlimit:10;stroke-width:2px;}.cls-13{fill:none;}</style></defs><title>Mesa de trabajo 17</title><g id="_Grupo_" data-name="&lt;Grupo&gt;"><g id="_Grupo_2" data-name="&lt;Grupo&gt;"><path id="_Trazado_" data-name="&lt;Trazado&gt;" class="cls-1" d="M433.13,9.35a10.8,10.8,0,0,1,5.27.08,19.73,19.73,0,0,1,8.46,3.66,10.67,10.67,0,0,1,4.18,8,41,41,0,0,1-9.52-2.25,11.93,11.93,0,0,1-3.35-1.71c-2.46-1.95-2.29-6.25-5.05-7.75"/><g id="_Grupo_3" data-name="&lt;Grupo&gt;"><path id="_Trazado_2" data-name="&lt;Trazado&gt;" class="cls-2" d="M433.33,10.07c7-1.36,16.45,3.34,17,11l.75-.75c-4.4-.57-11.31-1.48-13.76-5.6-1.31-2.2-1.55-4.45-3.78-6-.79-.55-1.55.75-.76,1.3,3,2.11,2.7,6.48,6.09,8.44,3.6,2.08,8.13,2.85,12.2,3.37a.75.75,0,0,0,.75-.75c-.59-8.71-10.88-14-18.86-12.43-.95.18-.55,1.63.4,1.45Z"/></g></g><g id="_Grupo_4" data-name="&lt;Grupo&gt;"><path id="_Trazado_3" data-name="&lt;Trazado&gt;" class="cls-1" d="M439.08,12a26.44,26.44,0,0,1,4.43,2.56c1.12.8,2.28,2,2,3.32"/><g id="_Grupo_5" data-name="&lt;Grupo&gt;"><path id="_Trazado_4" data-name="&lt;Trazado&gt;" class="cls-2" d="M438.71,12.69a28,28,0,0,1,3.67,2c1.12.74,2.57,1.69,2.42,3.2-.1,1,1.41,1,1.5,0,.33-3.33-4.4-5.4-6.83-6.53-.87-.41-1.63.89-.76,1.3Z"/></g></g><g id="_Grupo_6" data-name="&lt;Grupo&gt;"><path id="_Trazado_5" data-name="&lt;Trazado&gt;" class="cls-1" d="M443.67,15.27l-.48,1.41a.35.35,0,0,0,0,.19c0,.08.09.14.14.2s.06.18,0,.22"/><g id="_Grupo_7" data-name="&lt;Grupo&gt;"><path id="_Trazado_6" data-name="&lt;Trazado&gt;" class="cls-2" d="M443,15.07c-.16.46-.36.93-.48,1.41s.06.66.22,1l-.1-.38v.08l.22-.53,0,.06c-.63.73.43,1.8,1.06,1.06.4-.47.26-.85,0-1.33l.1.38a3.09,3.09,0,0,1,.21-.61l.27-.79c.31-.91-1.13-1.31-1.45-.4Z"/></g></g><g id="_Grupo_8" data-name="&lt;Grupo&gt;"><path id="_Trazado_7" data-name="&lt;Trazado&gt;" class="cls-1" d="M440.82,13a1.23,1.23,0,0,0-.2,1.87"/><g id="_Grupo_9" data-name="&lt;Grupo&gt;"><path id="_Trazado_8" data-name="&lt;Trazado&gt;" class="cls-2" d="M440.44,12.31a2,2,0,0,0-.35,3c.67.7,1.72-.36,1.06-1.06a.48.48,0,0,1,0-.69c.79-.54,0-1.84-.76-1.3Z"/></g></g><g id="_Grupo_10" data-name="&lt;Grupo&gt;"><path id="_Trazado_9" data-name="&lt;Trazado&gt;" class="cls-1" d="M442,13.25a7,7,0,0,0,2-.34"/><g id="_Grupo_11" data-name="&lt;Grupo&gt;"><path id="_Trazado_10" data-name="&lt;Trazado&gt;" class="cls-2" d="M442,14a8.42,8.42,0,0,0,2.24-.36c.92-.28.53-1.73-.4-1.45a6.85,6.85,0,0,1-1.84.31.75.75,0,0,0,0,1.5Z"/></g></g></g><text class="cls-3" transform="translate(10.49 38.79)"><tspan class="cls-4">V<tspan class="cls-5" x="14.29" y="0">elamos por el cuidado de tus dien</tspan><tspan class="cls-6" x="384.69" y="0">t</tspan><tspan class="cls-7" x="391.57" y="0">es</tspan></tspan><tspan x="1.1" y="26.71">y además </tspan><tspan class="cls-8" x="114.99" y="26.71">r</tspan><tspan x="121.02" y="26.71">esp</tspan><tspan class="cls-9" x="159.31" y="26.71">e</tspan><tspan class="cls-8" x="173.22" y="26.71">t</tspan><tspan x="180.09" y="26.71">amos a la natu</tspan><tspan class="cls-6" x="342.6" y="26.71">r</tspan><tspan x="348.63" y="26.71">aleza.</tspan><tspan x="14.52" y="53.42">¿Qué mejor </tspan><tspan class="cls-10" x="148.53" y="53.42">f</tspan><tspan class="cls-11" x="154.97" y="53.42">orma de combinarlos?</tspan></text><line id="_Trazado_11" data-name="&lt;Trazado&gt;" class="cls-12" x1="1.18" y1="8.38" x2="427.18" y2="8.38"/><g id="_Grupo_12" data-name="&lt;Grupo&gt;"><g id="_Grupo_13" data-name="&lt;Grupo&gt;"><path id="_Trazado_12" data-name="&lt;Trazado&gt;" class="cls-1" d="M434.3,8.52c3.15,0,6-1.9,8.09-4.3a6.5,6.5,0,0,1,1.85-1.75,4.5,4.5,0,0,1,1.29-.38,12.39,12.39,0,0,1,4.38.05c-.25,2.47-.67,5.17-2.52,6.84s-4.25,1.8-6.58,2a9.83,9.83,0,0,1-2.7-.06,9.82,9.82,0,0,1-1.83-.65l-3.11-1.33a1.27,1.27,0,0,1,1.11-.44"/><g id="_Grupo_14" data-name="&lt;Grupo&gt;"><path id="_Trazado_13" data-name="&lt;Trazado&gt;" class="cls-2" d="M434.3,9.27a11.17,11.17,0,0,0,6.16-2.22c2-1.47,3.8-5,6.72-4.36,1.91.39,1.88,1.38,1.35,3a6.07,6.07,0,0,1-4.89,4.21c-3.79.84-6.6-.13-10.08-1.62v1.3l.93-.37c1-.13.55-1.57-.4-1.45a1.79,1.79,0,0,0-1.29.52c-.4.29-.57,1.05,0,1.3,4.25,1.82,8.06,3,12.67,1.37,3.88-1.41,4.77-5,5.19-8.77a.75.75,0,0,0-.55-.72c-2.12-.31-4.7-.57-6.6.64a16.11,16.11,0,0,0-2.37,2.4,10.53,10.53,0,0,1-6.85,3.3c-1,.06-1,1.56,0,1.5Z"/></g></g><g id="_Grupo_15" data-name="&lt;Grupo&gt;"><path id="_Trazado_14" data-name="&lt;Trazado&gt;" class="cls-1" d="M439.81,9.31a14.46,14.46,0,0,0,3-1.1,6.08,6.08,0,0,0,2.37-2.11c.25-.4.43-.84.7-1.23A1.88,1.88,0,0,1,447,4"/><g id="_Grupo_16" data-name="&lt;Grupo&gt;"><path id="_Trazado_15" data-name="&lt;Trazado&gt;" class="cls-2" d="M440,10a12.25,12.25,0,0,0,4.34-1.94,6.25,6.25,0,0,0,1.17-1.17c.5-.67.83-1.88,1.67-2.18s.51-1.77-.4-1.45c-1.23.44-1.58,1.38-2.25,2.41-1.1,1.7-3.08,2.35-4.93,2.87A.75.75,0,0,0,440,10Z"/></g></g><g id="_Grupo_17" data-name="&lt;Grupo&gt;"><g id="_Grupo_18" data-name="&lt;Grupo&gt;"><path id="_Trazado_16" data-name="&lt;Trazado&gt;" class="cls-2" d="M443.47,4.6c0,.86-.14,2.17.87,2.55a1.33,1.33,0,0,0,1.25-.22A2,2,0,0,1,447,6.56a.75.75,0,0,0,0-1.5,3.2,3.2,0,0,0-1.94.42s-.33.2-.33.24q.38.33.31.12a.66.66,0,0,1,0-.1,4.36,4.36,0,0,0,0-1.15.75.75,0,0,0-1.5,0Z"/></g></g><g id="_Grupo_19" data-name="&lt;Grupo&gt;"><g id="_Grupo_20" data-name="&lt;Grupo&gt;"><path id="_Trazado_17" data-name="&lt;Trazado&gt;" class="cls-2" d="M440.8,7.65c-.16-.14-.14.29-.13.46a1.28,1.28,0,0,0,.21.64,1.72,1.72,0,0,0,1.13.67,4.75,4.75,0,0,0,3.2-.4.75.75,0,0,0-.76-1.3,3.71,3.71,0,0,1-2.12.24c-.12,0-.2-.12-.14,0,0-.09.07-.36.07-.47a1.15,1.15,0,0,0-.4-.9c-.71-.65-1.78.41-1.06,1.06Z"/></g></g></g><path id="_Trazado_18" data-name="&lt;Trazado&gt;" class="cls-13" d="M433.89,9.53a5.77,5.77,0,0,0-3.11-1.26c-.3,0-.6,0-.9,0l-2.88,0"/><g id="_Grupo_21" data-name="&lt;Grupo&gt;"><g id="_Grupo_22" data-name="&lt;Grupo&gt;"><path id="_Trazado_19" data-name="&lt;Trazado&gt;" class="cls-1" d="M19.38,112.44a10.8,10.8,0,0,0-5.27.08,19.73,19.73,0,0,0-8.46,3.66,10.67,10.67,0,0,0-4.18,8A41,41,0,0,0,11,121.9a11.93,11.93,0,0,0,3.35-1.71c2.46-1.95,2.29-6.25,5.05-7.75"/><g id="_Grupo_23" data-name="&lt;Grupo&gt;"><path id="_Trazado_20" data-name="&lt;Trazado&gt;" class="cls-2" d="M19.58,111.72c-8-1.56-18.28,3.72-18.86,12.43a.75.75,0,0,0,.75.75c4.08-.52,8.59-1.29,12.2-3.37,3.41-2,3.05-6.33,6.09-8.44.79-.55,0-1.85-.76-1.3-2.22,1.54-2.48,3.8-3.78,6-2.41,4.09-9.4,5-13.76,5.6l.75.75c.51-7.66,10-12.34,17-11,.94.18,1.35-1.26.4-1.45Z"/></g></g><g id="_Grupo_24" data-name="&lt;Grupo&gt;"><path id="_Trazado_21" data-name="&lt;Trazado&gt;" class="cls-1" d="M13.43,115.13A26.44,26.44,0,0,0,9,117.7c-1.12.8-2.28,2-2,3.32"/><g id="_Grupo_25" data-name="&lt;Grupo&gt;"><path id="_Trazado_22" data-name="&lt;Trazado&gt;" class="cls-2" d="M13.05,114.48c-2.43,1.13-7.16,3.2-6.83,6.53.09,1,1.6,1,1.5,0-.15-1.51,1.31-2.46,2.42-3.2a28,28,0,0,1,3.67-2c.87-.41.11-1.7-.76-1.3Z"/></g></g><g id="_Grupo_26" data-name="&lt;Grupo&gt;"><path id="_Trazado_23" data-name="&lt;Trazado&gt;" class="cls-1" d="M8.84,118.36l.48,1.41a.35.35,0,0,1,0,.19c0,.08-.09.14-.14.2s-.06.18,0,.22"/><g id="_Grupo_27" data-name="&lt;Grupo&gt;"><path id="_Trazado_24" data-name="&lt;Trazado&gt;" class="cls-2" d="M8.12,118.56l.27.79a3,3,0,0,1,.21.61l.1-.38c-.27.48-.41.86,0,1.33.63.73,1.69-.33,1.06-1.06l0-.06.22.53v-.08l-.1.38c.17-.39.34-.59.22-1s-.32-.94-.48-1.41c-.31-.91-1.76-.52-1.45.4Z"/></g></g><g id="_Grupo_28" data-name="&lt;Grupo&gt;"><path id="_Trazado_25" data-name="&lt;Trazado&gt;" class="cls-1" d="M11.69,116a1.23,1.23,0,0,1,.2,1.87"/><g id="_Grupo_29" data-name="&lt;Grupo&gt;"><path id="_Trazado_26" data-name="&lt;Trazado&gt;" class="cls-2" d="M11.32,116.69a.48.48,0,0,1,0,.69c-.66.7.4,1.76,1.06,1.06a2,2,0,0,0-.35-3c-.8-.55-1.55.75-.76,1.3Z"/></g></g><g id="_Grupo_30" data-name="&lt;Grupo&gt;"><path id="_Trazado_27" data-name="&lt;Trazado&gt;" class="cls-1" d="M10.51,116.34a7,7,0,0,1-2-.34"/><g id="_Grupo_31" data-name="&lt;Grupo&gt;"><path id="_Trazado_28" data-name="&lt;Trazado&gt;" class="cls-2" d="M10.51,115.59a6.85,6.85,0,0,1-1.84-.31c-.92-.28-1.32,1.16-.4,1.45a8.42,8.42,0,0,0,2.24.36.75.75,0,0,0,0-1.5Z"/></g></g></g><line id="_Trazado_29" data-name="&lt;Trazado&gt;" class="cls-12" x1="427.18" y1="111.38" x2="25.18" y2="111.38"/><g id="_Grupo_32" data-name="&lt;Grupo&gt;"><g id="_Grupo_33" data-name="&lt;Grupo&gt;"><path id="_Trazado_30" data-name="&lt;Trazado&gt;" class="cls-1" d="M18.21,111.62c-3.15,0-6-1.9-8.09-4.3a6.5,6.5,0,0,0-1.85-1.75A4.5,4.5,0,0,0,7,105.19a12.39,12.39,0,0,0-4.38.05c.25,2.47.67,5.17,2.52,6.84s4.25,1.8,6.58,2a9.83,9.83,0,0,0,2.7-.06,9.82,9.82,0,0,0,1.83-.65L19.33,112a1.27,1.27,0,0,0-1.11-.44"/><g id="_Grupo_34" data-name="&lt;Grupo&gt;"><path id="_Trazado_31" data-name="&lt;Trazado&gt;" class="cls-2" d="M18.21,110.87a10.26,10.26,0,0,1-6.46-2.94A22.94,22.94,0,0,0,9,105.16c-1.89-1.21-4.49-.95-6.6-.64a.75.75,0,0,0-.55.72C2.27,109,3.15,112.61,7,114c4.61,1.67,8.42.46,12.67-1.37.57-.24.4-1,0-1.3a1.79,1.79,0,0,0-1.29-.52c-.94-.13-1.35,1.32-.4,1.45l.93.37v-1.3c-3.48,1.49-6.29,2.45-10.08,1.62A6.07,6.07,0,0,1,4,108.76c-.53-1.59-.56-2.58,1.35-3,2.92-.6,4.72,2.89,6.72,4.36a11.17,11.17,0,0,0,6.16,2.22c1,.06,1-1.44,0-1.5Z"/></g></g><g id="_Grupo_35" data-name="&lt;Grupo&gt;"><path id="_Trazado_32" data-name="&lt;Trazado&gt;" class="cls-1" d="M12.71,112.4a14.46,14.46,0,0,1-3-1.1,6.08,6.08,0,0,1-2.37-2.11c-.25-.4-.43-.84-.7-1.23a1.88,1.88,0,0,0-1.1-.83"/><g id="_Grupo_36" data-name="&lt;Grupo&gt;"><path id="_Trazado_33" data-name="&lt;Trazado&gt;" class="cls-2" d="M12.91,111.68c-1.85-.52-3.83-1.17-4.93-2.87-.67-1-1-2-2.25-2.41-.91-.32-1.3,1.13-.4,1.45s1.13,1.44,1.61,2.1a6.25,6.25,0,0,0,1.23,1.25,12.25,12.25,0,0,0,4.34,1.94.75.75,0,0,0,.4-1.45Z"/></g></g><g id="_Grupo_37" data-name="&lt;Grupo&gt;"><g id="_Grupo_38" data-name="&lt;Grupo&gt;"><path id="_Trazado_34" data-name="&lt;Trazado&gt;" class="cls-2" d="M7.55,107.69a5.68,5.68,0,0,0,0,1.15c0,.12-.17.22.13.05s0-.19-.17-.32a3.2,3.2,0,0,0-1.94-.42.75.75,0,0,0,0,1.5,1.9,1.9,0,0,1,1.31.31,1.36,1.36,0,0,0,1.32.27c1-.38.85-1.69.87-2.55a.75.75,0,0,0-1.5,0Z"/></g></g><g id="_Grupo_39" data-name="&lt;Grupo&gt;"><g id="_Grupo_40" data-name="&lt;Grupo&gt;"><path id="_Trazado_35" data-name="&lt;Trazado&gt;" class="cls-2" d="M10.65,109.68a1.16,1.16,0,0,0-.4.81,5.34,5.34,0,0,1,.07.56c.07-.14,0,0-.14,0a3.77,3.77,0,0,1-2.12-.24.75.75,0,0,0-.76,1.3,4.75,4.75,0,0,0,3.2.4,1.72,1.72,0,0,0,1.13-.67,1.28,1.28,0,0,0,.21-.64c0-.17,0-.6-.13-.46.72-.65-.35-1.71-1.06-1.06Z"/></g></g></g><path id="_Trazado_36" data-name="&lt;Trazado&gt;" class="cls-13" d="M18.63,112.62a5.77,5.77,0,0,1,3.11-1.26c.3,0,.6,0,.9,0l2.88,0"/></svg>