<svg id="Capa_1" data-name="Capa 1" xmlns="http://www.w3.org/2000/svg" xmlns:xlink="http://www.w3.org/1999/xlink" viewBox="0 0 25.38 25.38"><defs><style>.cls-1{fill:none;}.cls-2{clip-path:url(#clip-path);}.cls-3{fill:#fff;}.cls-4{fill:#339a6a;}</style><clipPath id="clip-path"><rect id="_Rectángulo_" data-name="&lt;Rectángulo&gt;" class="cls-1" x="1.43" y="277.51" width="1120.92" height="269"/></clipPath></defs><title>Mesa de trabajo 13</title><g id="_Recortar_grupo_" data-name="&lt;Recortar grupo&gt;"><g class="cls-2"><image id="_Imagen_" data-name="&lt;Imagen&gt;" width="1920" height="1200" transform="translate(1.63 15.34) scale(0.58 0.57)" xlink:href="../visualesmeraki/bambu-background.jpg"/></g></g><g id="_Grupo_" data-name="&lt;Grupo&gt;"><g id="_Grupo_2" data-name="&lt;Grupo&gt;"><circle id="_Trazado_" data-name="&lt;Trazado&gt;" class="cls-3" cx="12.69" cy="12.69" r="12.69"/><path id="_Trazado_compuesto_" data-name="&lt;Trazado compuesto&gt;" class="cls-4" d="M17.3,5.18H8.08a2.91,2.91,0,0,0-2.91,2.9V17.3a2.91,2.91,0,0,0,2.91,2.91H17.3a2.91,2.91,0,0,0,2.91-2.91V8.08A2.91,2.91,0,0,0,17.3,5.18Zm.83,1.73h.33V9.45H15.93V6.91Zm-7.59,4.24a2.64,2.64,0,0,1,4.29,0,2.7,2.7,0,0,1,.16.25,2.62,2.62,0,0,1,.34,1.29,2.65,2.65,0,0,1-5.29,0,2.62,2.62,0,0,1,.34-1.29A2.77,2.77,0,0,1,10.55,11.15Zm8.2,6.15a1.44,1.44,0,0,1-1.44,1.44H8.08A1.44,1.44,0,0,1,6.64,17.3V11.15H8.88a4.16,4.16,0,0,0-.3,1.54,4.11,4.11,0,1,0,8.22,0,4.06,4.06,0,0,0-.16-1.12,4.16,4.16,0,0,0-.15-.42h2.25V17.3Z"/></g></g></svg>