<svg id="Capa_1" data-name="Capa 1" xmlns="http://www.w3.org/2000/svg" xmlns:xlink="http://www.w3.org/1999/xlink" viewBox="0 0 17.39 18.75"><defs><style>.cls-1{fill:none;}.cls-2{clip-path:url(#clip-path);}.cls-3{fill:#fff;}</style><clipPath id="clip-path"><rect id="_Rectángulo_" data-name="&lt;Rectángulo&gt;" class="cls-1" y="171.89" width="1120.92" height="269"/></clipPath></defs><title>Mesa de trabajo 10</title><g id="_Recortar_grupo_" data-name="&lt;Recortar grupo&gt;"><g class="cls-2"><image id="_Imagen_" data-name="&lt;Imagen&gt;" width="1920" height="1200" transform="translate(0.2 -90.28) scale(0.58 0.57)" xlink:href="../visualesmeraki/bambu-background.jpg"/></g></g><path id="_Trazado_compuesto_" data-name="&lt;Trazado compuesto&gt;" class="cls-3" d="M17.39,10.61a5.39,5.39,0,0,1-.39.84,1.89,1.89,0,0,1-1.63.89H5.51a3,3,0,0,1-1.64-.26c0,.58,0,1.1.08,1.62a1,1,0,0,0,1,.8h9.82a2.12,2.12,0,0,1,2.12,2.11,2.15,2.15,0,0,1-1.75,2.1A2.08,2.08,0,0,1,12.68,17a2,2,0,0,1,.18-1.4H8.35a2.15,2.15,0,0,1,.09,1.83,2,2,0,0,1-.81,1A2.18,2.18,0,0,1,5,18.2a2.2,2.2,0,0,1-.42-2.62,2.07,2.07,0,0,1-1.41-.9,2.35,2.35,0,0,1-.35-.93c-.07-.66-.06-1.32-.06-2q0-4.71,0-9.41A.34.34,0,0,0,2.55,2C1.8,1.69,1,1.37.3,1,.18,1,.1.86,0,.77V.29A.65.65,0,0,1,.8.06L3.55,1.22a.52.52,0,0,1,.35.52c0,.6,0,1.2,0,1.81l1.26.15,1.58.23,1.54.2,1.61.23,1.52.2L13,4.8l1.59.2,2,.29c.31,0,.65,0,.83.38Zm-13.5-6v.3c0,1.72,0,3.44,0,5.16a1.14,1.14,0,0,0,1.18,1.19c3.33,0,6.66,0,10,0A1.18,1.18,0,0,0,16.34,10c0-1.13,0-2.26,0-3.39V6.36Zm2.58,11a1.08,1.08,0,0,0-1,1,1.11,1.11,0,0,0,1,1.06,1.07,1.07,0,0,0,1-1A1,1,0,0,0,6.47,15.61Zm7.27,1a1,1,0,0,0,1,1,1.08,1.08,0,0,0,1-1,1.05,1.05,0,0,0-1-1A1,1,0,0,0,13.74,16.65Z"/></svg>