<svg id="Capa_1" data-name="Capa 1" xmlns="http://www.w3.org/2000/svg" xmlns:xlink="http://www.w3.org/1999/xlink" viewBox="0 0 10.29 10.45"><defs><style>.cls-1{fill:none;}.cls-2{clip-path:url(#clip-path);}</style><clipPath id="clip-path"><rect id="_Rectángulo_" data-name="&lt;Rectángulo&gt;" class="cls-1" x="-117.97" y="267.71" width="1120.92" height="269"/></clipPath></defs><title>Mesa de trabajo 20</title><g id="_Recortar_grupo_" data-name="&lt;Recortar grupo&gt;"><g class="cls-2"><image id="_Imagen_" data-name="&lt;Imagen&gt;" width="1920" height="1200" transform="translate(-117.76 5.55) scale(0.58 0.57)" xlink:href="../visualesmeraki/bambu-background.jpg"/></g></g><g id="_Grupo_" data-name="&lt;Grupo&gt;"><g id="_Grupo_2" data-name="&lt;Grupo&gt;"><path id="_Trazado_compuesto_" data-name="&lt;Trazado compuesto&gt;" d="M8.3,0H2A2,2,0,0,0,0,2V8.3a2,2,0,0,0,2,2H8.3a2,2,0,0,0,2-2V2A2,2,0,0,0,8.3,0Zm.57,1.19H9.1V2.93H7.36V1.19ZM3.68,4.09a1.81,1.81,0,0,1,2.94,0l.11.17A1.79,1.79,0,0,1,7,5.14a1.81,1.81,0,0,1-3.62,0,1.79,1.79,0,0,1,.23-.88ZM9.28,8.3a1,1,0,0,1-1,1H2a1,1,0,0,1-1-1V4.09H2.54a2.85,2.85,0,0,0-.21,1.06A2.81,2.81,0,1,0,8,5.14a2.78,2.78,0,0,0-.11-.77,2.85,2.85,0,0,0-.1-.29H9.28V8.3Z"/></g></g></svg>