<svg id="Capa_1" data-name="Capa 1" xmlns="http://www.w3.org/2000/svg" xmlns:xlink="http://www.w3.org/1999/xlink" viewBox="0 0 10.29 8.23"><defs><style>.cls-1{fill:none;}.cls-2{clip-path:url(#clip-path);}</style><clipPath id="clip-path"><rect id="_Rectángulo_" data-name="&lt;Rectángulo&gt;" class="cls-1" x="-142.67" y="266.19" width="1120.92" height="269"/></clipPath></defs><title>Mesa de trabajo 21</title><g id="_Recortar_grupo_" data-name="&lt;Recortar grupo&gt;"><g class="cls-2"><image id="_Imagen_" data-name="&lt;Imagen&gt;" width="1920" height="1200" transform="translate(-142.46 4.03) scale(0.58 0.57)" xlink:href="../visualesmeraki/bambu-background.jpg"/></g></g><g id="_Grupo_" data-name="&lt;Grupo&gt;"><g id="_Grupo_2" data-name="&lt;Grupo&gt;"><path id="_Trazado_" data-name="&lt;Trazado&gt;" d="M10.29,1a4.26,4.26,0,0,1-1.21.33A2.09,2.09,0,0,0,10,.15a4.26,4.26,0,0,1-1.34.5A2.12,2.12,0,0,0,7.12,0,2.08,2.08,0,0,0,5.07,2.55,6,6,0,0,1,.72.38a2,2,0,0,0-.29,1,2.07,2.07,0,0,0,.94,1.73,2.13,2.13,0,0,1-1-.26v0a2,2,0,0,0,.14.75A2.11,2.11,0,0,0,2.11,5,2.18,2.18,0,0,1,1.55,5a2.11,2.11,0,0,1-.4,0,2.11,2.11,0,0,0,2,1.44A4.27,4.27,0,0,1,.5,7.33L0,7.3a6,6,0,0,0,3.24.93A5.88,5.88,0,0,0,9.1,3.57a5.71,5.71,0,0,0,.14-1.25c0-.09,0-.18,0-.27A4.24,4.24,0,0,0,10.29,1Z"/></g></g></svg>