<svg id="Capa_1" data-name="Capa 1" xmlns="http://www.w3.org/2000/svg" xmlns:xlink="http://www.w3.org/1999/xlink" viewBox="0 0 17.86 13.59"><defs><style>.cls-1{fill:none;}.cls-2{clip-path:url(#clip-path);}.cls-3{fill:#fff;}</style><clipPath id="clip-path"><rect id="_Rectángulo_" data-name="&lt;Rectángulo&gt;" class="cls-1" x="1.43" y="198.55" width="1120.92" height="269"/></clipPath></defs><title>Mesa de trabajo 11</title><g id="_Recortar_grupo_" data-name="&lt;Recortar grupo&gt;"><g class="cls-2"><image id="_Imagen_" data-name="&lt;Imagen&gt;" width="1920" height="1200" transform="translate(1.63 -63.62) scale(0.58 0.57)" xlink:href="../visualesmeraki/bambu-background.jpg"/></g></g><g id="_Grupo_" data-name="&lt;Grupo&gt;"><path id="_Trazado_compuesto_" data-name="&lt;Trazado compuesto&gt;" class="cls-3" d="M15.68,0H2.18A2.19,2.19,0,0,0,0,2.18v9.22a2.19,2.19,0,0,0,2.18,2.18H15.67a2.19,2.19,0,0,0,2.18-2.18V2.19A2.18,2.18,0,0,0,15.68,0Zm1.19,11.41a1.19,1.19,0,0,1-1.19,1.19H2.18A1.19,1.19,0,0,1,1,11.41V2.19A1.19,1.19,0,0,1,2.18,1H15.67a1.19,1.19,0,0,1,1.19,1.19v9.22Zm0,0"/><path id="_Trazado_compuesto_2" data-name="&lt;Trazado compuesto&gt;" class="cls-3" d="M11.26,6.68l4.37-3.92A.5.5,0,1,0,15,2l-6,5.41-1.18-1h0L7.67,6.3,2.89,2a.5.5,0,1,0-.67.75L6.65,6.71l-4.4,4.12a.5.5,0,0,0,0,.71.51.51,0,0,0,.37.16.5.5,0,0,0,.34-.13L7.4,7.39,8.61,8.47a.5.5,0,0,0,.67,0l1.25-1.12L15,11.57a.5.5,0,0,0,.71,0,.5.5,0,0,0,0-.71Zm0,0"/></g></svg>