<svg id="Capa_1" data-name="Capa 1" xmlns="http://www.w3.org/2000/svg" xmlns:xlink="http://www.w3.org/1999/xlink" viewBox="0 0 26.77 25.39"><defs><style>.cls-1{fill:none;}.cls-2{clip-path:url(#clip-path);}.cls-3{fill:#fff;}.cls-4{fill:#339a6a;}</style><clipPath id="clip-path"><rect id="_Rectángulo_" data-name="&lt;Rectángulo&gt;" class="cls-1" x="-34.67" y="277.51" width="1120.92" height="269"/></clipPath></defs><title>Mesa de trabajo 14</title><g id="_Recortar_grupo_" data-name="&lt;Recortar grupo&gt;"><g class="cls-2"><image id="_Imagen_" data-name="&lt;Imagen&gt;" width="1920" height="1200" transform="translate(-34.47 15.34) scale(0.58 0.57)" xlink:href="../visualesmeraki/bambu-background.jpg"/></g></g><g id="_Grupo_" data-name="&lt;Grupo&gt;"><g id="_Grupo_2" data-name="&lt;Grupo&gt;"><circle id="_Trazado_" data-name="&lt;Trazado&gt;" class="cls-3" cx="12.69" cy="12.69" r="12.69"/><path id="_Trazado_2" data-name="&lt;Trazado&gt;" class="cls-4" d="M20.21,8.82a6.22,6.22,0,0,1-1.77.48A3.05,3.05,0,0,0,19.8,7.62a6.23,6.23,0,0,1-2,.74,3.1,3.1,0,0,0-2.25-1,3,3,0,0,0-3,3.73A8.8,8.8,0,0,1,6.22,8,3,3,0,0,0,5.8,9.48,3,3,0,0,0,7.18,12a3.11,3.11,0,0,1-1.4-.38v0A3,3,0,0,0,6,12.76a3.08,3.08,0,0,0,2.26,1.88,3.19,3.19,0,0,1-.81.11,3.09,3.09,0,0,1-.58-.06A3.08,3.08,0,0,0,9.74,16.8a6.25,6.25,0,0,1-3.83,1.3,6.38,6.38,0,0,1-.74,0A8.84,8.84,0,0,0,9.9,19.42a8.59,8.59,0,0,0,8.57-6.81,8.34,8.34,0,0,0,.21-1.83c0-.13,0-.26,0-.39A6.2,6.2,0,0,0,20.21,8.82Z"/></g></g></svg>